# xmcd CD database file
# Copyright (C) 1993-1998 Ti Kan
#
# Track frame offsets:
#  150
#  12400
#  25527
#  35297
#  83022
#  94722
#  102972
#  115237
#  125017
#  136550
#  148707
#  157797
#  169657
#  181642
#  208460
#  240445
#  260102
#  274707
#  286205
#  302245
#
# Disc length: 4293 seconds
#
# Revision: 1
# Processed by: cddbd v1.4b41PL1 Copyright (c) Steve Scherf et al.
# Submitted via: CDWizzard Release:4.35
#
DISCID=0710c314
DTITLE=Chuck Berry - The CHESS BOX (Disc3) 1964-1973
DYEAR=1900
DGENRE=
TTITLE0=No Particular Place To Go (1964)
TTITLE1=Liverpool Drive (1964)
TTITLE2=You Two (1964)
TTITLE3=Chuck's Beat (1964)
TTITLE4=Little Marie (1964)
TTITLE5=Dear Dad (1964)
TTITLE6=Sad Day, Long Night (1965)
TTITLE7=It's My Own Business (1965)
TTITLE8=It Wasn't Me (1965)
TTITLE9=Ramona Say Yes (1966)
TTITLE10=Viva Viva Rock 'n' Roll (1966)
TTITLE11=Tulane (1969)
TTITLE12=Have Mercy Judge (1969)
TTITLE13=My Dream (1971)
TTITLE14=Reelin' And Rockin' [live] (1972) 
TTITLE15=My Ding-A-Ling [single edit, live] (1972)
TTITLE16=Johnny B. Goode [live] (1972)
TTITLE17=A Deuce (1973)
TTITLE18=Woodpecker (1973)
TTITLE19=Bio (1973)
EXTD=
EXTT0=
EXTT1=
EXTT2=
EXTT3=
EXTT4=
EXTT5=
EXTT6=
EXTT7=
EXTT8=
EXTT9=
EXTT10=
EXTT11=
EXTT12=
EXTT13=
EXTT14=
EXTT15=
EXTT16=
EXTT17=
EXTT18=
EXTT19=
PLAYORDER=
